<?xml version="1.0" encoding="UTF-8"?>
<!-- Created with Inkscape (http://www.inkscape.org/) -->
<svg width="362" height="80" version="1.1" viewBox="0 0 339.38 75" xmlns="http://www.w3.org/2000/svg" xmlns:cc="http://creativecommons.org/ns#" xmlns:dc="http://purl.org/dc/elements/1.1/" xmlns:rdf="http://www.w3.org/1999/02/22-rdf-syntax-ns#" xmlns:xlink="http://www.w3.org/1999/xlink">
 <defs>
  <clipPath id="clip2-4">
   <path d="m1461.9 55h22.106v10h-22.106z"/>
  </clipPath>
  <clipPath id="clip3-7">
   <path d="m1556 55h35v37.188h-35z"/>
  </clipPath>
  <clipPath id="clip4-5">
   <path d="m1596 54.977h50v37.023h-50z"/>
  </clipPath>
  <clipPath id="clip5-6">
   <path d="m1690 55h25v37.188h-25z"/>
  </clipPath>
  <clipPath id="clip6-0">
   <path d="m1711 55h18.828v10h-18.828z"/>
  </clipPath>
 </defs>
 <metadata>
  <rdf:RDF>
   <cc:Work rdf:about="">
    <dc:format>image/svg+xml</dc:format>
    <dc:type rdf:resource="http://purl.org/dc/dcmitype/StillImage"/>
   </cc:Work>
  </rdf:RDF>
 </metadata>
 <g transform="translate(0,-977.36)">
  <g transform="matrix(1.0152 0 0 1.0111 -1109.7 1657.9)" fill="#6bb149">
   <g transform="matrix(1.25 0 0 1.25 -734.13 -741.98)" clip-path="url(#clip2-4)">
    <path d="m1484 55.176h-22.09v9.1992h15.242c0.3672-4.6016 4.8594-7.9922 6.8477-9.1992" fill="#6bb149"/>
   </g>
   <g>
    <path d="m1140.4-660.64h-8.1104c-9.2041 9.3066 3.6915 20.757 8.1104 20.747zm15 33.296s-13.345 0.20508-15 0c-1.372-0.1709-23.818-2.5781-26.02-21.685-0.8692-7.5439-1.5137-22.9 18.579-23.984h22.441z"/>
    <path d="m1165.1-661.51h-7.583v-11.504h7.583z"/>
    <path d="m1166.9-673.01v45.674h15.542v-33.364s8.1884-0.98633 8.6474 2.7881c0.6495 5.3906 0.2979 30.576 0.2979 30.576h14.941c0-24.946 1.3623-33.975-2.7344-39.824-3.9648-5.669-12.432-5.8496-12.432-5.8496z"/>
    <path d="m1202.4-673.01h15.015c-7.5098 4.7998-7.085 11.499-7.1289 11.499-0.029 0.0147-2.1875 0-2.373 0-0.1905 0 0.9325-4.8047-5.5127-11.499"/>
   </g>
   <g transform="matrix(1.25 0 0 1.25 -734.13 -741.98)" clip-path="url(#clip3-7)">
    <path d="m1570.4 73.758c0.7578 0.75781 11.496-7.2109 6.0664-8.9805-7.2813-2.3633-8.3125 6.7344-6.0664 8.9805m6.914 7.2188c-0.2422 1.3945 10.613 0.78906 10.613 0.78906l-2.7891 10.25s-13.949 1.9414-22.203-7.1602c-8.2461-9.0977-6.8515-17.77-6.8515-17.77s1.1523-11.504 16.621-11.91c15.465-0.40625 17.344 5.043 17.348 9.3594 0 10.012-12.559 15.398-12.738 16.441" fill="#6bb149"/>
   </g>
   <path d="m1250.9-673.06 8.8722 0.0732v11.401s-4.0235 0.0244-4.0187 0c0.8107-6.7676-4.8535-11.475-4.8535-11.475"/>
   <g transform="matrix(1.25 0 0 1.25 -734.13 -741.98)" clip-path="url(#clip4-5)">
    <path d="m1596.6 55.137c-0.059 0-0.059 36.82-0.059 36.82h11.586v-26.633l6.793-0.05859 0.1211 26.629 11.465 0.0625v-26.512s5.3985-0.96875 6.125 2.0625c0.8321 3.4648 0.4844 24.387 0.4844 24.387s11.891 0.0625 11.828 0.0625c-0.059 0 0.4258-24.383-0.1797-27.422-2.3085-11.555-7.9296-9.3984-48.164-9.3984" fill="#6bb149"/>
   </g>
   <path d="m1350.4-639.84c4.9073 0 13.066-21.45-0.3174-21.538-12.192-0.0781-5.0683 21.538 0.3174 21.538m-0.337-33.223c12.524 0 18.467 2.9053 21.626 11.255 2.3389 6.1621-0.7861 34.629-21.924 34.712-19.16 0.0781-23.398-28.169-20.82-34.712 3.291-8.3496 6.3867-11.255 21.118-11.255"/>
   <g transform="matrix(1.25 0 0 1.25 -734.13 -741.98)" clip-path="url(#clip5-6)">
    <path d="m1712.6 64.391c0.051 0.01953-2.9493-9.1172-2.9493-9.1172l-8.8437 0.04297s-7.9141-0.08203-10 4.793c-3.7578 8.7578 10.32 18.941 10.07 21.094 0.6289 2.0898-7.5859 1.4883-10.668 1.6484-0.027 0 2.3789 8.9883 2.5586 8.9922 8.043 0.125 18.809 1.582 21.535-6.082 2.9179-8.207-11.34-18.051-10.262-20.648 0.4921-1.1836 5.75-0.61328 8.5586-0.72266" fill="#6bb149"/>
   </g>
   <g transform="matrix(1.25 0 0 1.25 -734.13 -741.98)" clip-path="url(#clip6-0)">
    <path d="m1711.9 55.234h17.863l0.016 9.2266-15.047-0.02344z" fill="#6bb149"/>
   </g>
   <path d="m1318.7-673.02h15.015c-7.5098 4.7998-7.0849 11.494-7.1338 11.499-0.02 0.0147-2.1777 0-2.373 0-0.1856 0 0.9375-4.8047-5.5079-11.499"/>
   <path d="m1367.8-673.15h15.015c-7.5049 4.7998-6.3867 11.46-6.4355 11.46-0.025 0.0147-2.1826 0-2.3731 0-0.1904 0 0.2392-4.7656-6.206-11.46"/>
  </g>
  <text transform="scale(1.002 .998)" x="1.1612326" y="1051.9955" fill="#000000" font-family="Verdana" font-size="16.25px" letter-spacing="0px" stroke-width="1px" word-spacing="2.5718px" style="font-feature-settings:normal;font-variant-caps:normal;font-variant-ligatures:normal;font-variant-numeric:normal;line-height:0%" xml:space="preserve"><tspan x="1.1612326" y="1051.9955" font-family="Verdana" font-size="16.25px" style="font-feature-settings:normal;font-variant-caps:normal;font-variant-ligatures:normal;font-variant-numeric:normal;line-height:1.25">competence in wind power meteorology</tspan></text>
 </g>
</svg>
