<?xml version="1.0" encoding="UTF-8"?>
<svg xmlns="http://www.w3.org/2000/svg" xmlns:xlink="http://www.w3.org/1999/xlink" version="1.0" id="Ebene_1" x="0px" y="0px" width="100px" height="31.30029px" viewBox="0 0 100 31.30029" xml:space="preserve">
<g id="BoundingBox">
	<rect fill="none" width="100" height="31.30029"></rect>
</g>
<path d="M6.04785,5.94141h4.54346v6.04785c-0.89648,0.54688-2.21875,0.91211-3.98096,0.91211C2.94775,12.90137,0,10.63672,0,6.59473  c0-3.64746,2.5835-6.35156,6.62549-6.35156c1.59521,0,3.19092,0.34961,3.96582,0.82031l-0.15186,2.03613  C9.43701,2.50684,8.08398,2.24902,6.6709,2.24902c-2.65918,0-4.34619,1.56445-4.34619,4.28516  c0,2.78027,1.64111,4.37598,4.37646,4.37598c0.54736,0,1.10938-0.0459,1.68701-0.13672V7.87109H6.04785V5.94141z M12.58203,12.64258  h7.08252v-1.99023h-4.81836V0.48633h-2.26416V12.64258z M26.95752,9.37598c0,0.88086-0.60791,1.56445-2.12695,1.56445  c-1.44385,0-2.68994-0.31934-3.85986-0.88086l-0.10693,2.09668c1.125,0.5166,2.52295,0.74512,3.90576,0.74512  c2.91748,0,4.45215-1.76367,4.45215-3.86035c0-4.10254-6.24512-2.81152-6.24512-5.28809c0-0.9873,0.85107-1.56445,2.05127-1.56445  c1.15479,0,2.5376,0.30371,3.44922,0.85059l0.42578-1.92969c-0.85059-0.50195-2.3252-0.86621-3.79932-0.86621  c-2.46143,0-4.37598,1.35156-4.37598,3.7373C20.72754,8.20605,26.95752,6.97461,26.95752,9.37598z M39.26758,7.32422h-2.46191  v3.38867h2.46191c1.36768,0,1.95996-0.79004,1.95996-1.70215C41.22754,8.08398,40.62012,7.32422,39.26758,7.32422z   M38.81152,2.41602h-2.00586v3.25195h2.00586c1.35254,0,1.96045-0.6543,1.96045-1.53516  C40.77197,3.20605,40.13379,2.41602,38.81152,2.41602z M41.5166,6.33594c1.42822,0.48633,2.05127,1.48926,2.05127,2.85742  c0,1.99023-1.3374,3.44922-4.36133,3.44922H34.5415V0.48633h4.19385c3.02441,0,4.37646,1.30664,4.37646,3.28223  C43.11182,4.93848,42.61035,5.83496,41.5166,6.33594z M48.78174,8.99121c-1.56543,0-2.00586,0.47363-2.00586,1.14258  c0,0.65332,0.48633,1.0957,1.2002,1.0957c1.0791,0,2.09717-0.8252,2.43115-2.23828H48.78174z M50.4375,12.64258v-1.48926  c-0.68359,1.09375-1.77783,1.7168-3.0083,1.7168c-1.80811,0-2.79639-0.98926-2.79639-2.46289  c0-1.85449,1.44385-2.75293,3.84473-2.75293h1.95996V7.17188c0-1.09375-0.4707-1.35254-1.77783-1.35254  c-0.9873,0-2.27881,0.25879-3.32764,0.57812L45.5293,4.4668c1.01855-0.31836,2.26416-0.53125,3.46484-0.53125  c2.53711,0,3.60156,0.6377,3.60156,2.94824v5.75879H50.4375z M54.39648,12.64258h2.18848V6.97461  c0.79004-0.63867,1.62598-1.09375,2.46191-1.09375c0.86621,0,1.33789,0.31836,1.33789,1.30664v5.45508h2.1875V6.79199  c0-2.06641-0.86621-2.85645-2.7207-2.85645c-1.32129,0-2.37012,0.68359-3.2666,1.62598V3.99609l-2.18848,0.19727V12.64258z   M64.28125,12.64258h2.18848v-2.37012l1.35254-1.32227l2.1875,3.69238h2.43164l-3.17578-5.13672l3.34375-3.3125h-2.66016  l-3.47949,3.66211V0h-2.18848V12.64258z"></path>
<path fill="#01569A" d="M28.41602,23.53857c-0.04883-0.0293-0.05762-0.12109-0.02344-0.24414  c0.08643-0.28711,0.20361-0.55859,0.34863-0.80469l0.03369-0.06055c0.70117-1.27734,2.91553-3.84961,9.87109-5.04688  c8.53223-1.46826,19.83252-0.50781,24.29541-0.12109c0.74512,0.0625,1.47168,0.11914,2.16211,0.16406l0.4375,0.02148  l1.28125,0.07617c0.55762,0.02734,1.08301,0.04297,1.56445,0.05469h0.14258c0.4248,0.00391,1.54883,0.04297,2.21484,0.00586  c0.41992-0.02148,0.95508-0.06836,1.51855-0.11914l0.56152-0.04883c0.08398-0.00781,0.12207,0.04297,0.12988,0.08984  c0.00098,0.00586,0.00195,0.01172,0.00195,0.01758c0,0.04102-0.02246,0.08594-0.0791,0.09961  c-1.94141,0.48047-3.88574,0.87305-6.25098,1.13281c-3.10254,0.33008-6.17285,0.38672-10.09668,0.29883l-0.18945-0.02539  c-0.49219-0.0293-0.54102-0.05078-1.34082-0.21484c-0.02637-0.00391,0.02637,0.00781-0.0791-0.01562  c-0.10449-0.02344-0.11621-0.16211,0.01953-0.16602c0.09082,0,0.1875,0,0.1875,0c3.14453,0.01172,3.97656-0.03125,6.65234-0.15234  l1.18945-0.06055l0.99023-0.08789c0.09766-0.00781,0.14062-0.14844,0.14062-0.19141  c-0.00195-0.04688-0.07422-0.16992-0.23438-0.17383c-0.03711,0.00195-0.60742-0.0293-0.96094-0.04492  c-0.36719-0.01562-1.49414,0.04688-1.49414,0.04688c-0.60938,0-4.55664,0.17773-8.5918,0.17773  c-0.1748,0-0.97461-0.06445-1.13672-0.10156s-0.42578-0.04688-0.42578-0.04688c-0.08594-0.01953-0.07812-0.13477,0.01562-0.13867  c0,0,1.54102-0.14258,2.94922-0.16211c0.21777-0.00391,1.30859-0.03906,1.61035-0.05859  c0.2334-0.01562,0.46289-0.06055,0.46289-0.22266c0-0.20312-1.36328-0.20312-2.15918-0.20312  c-1.7998,0-5.54248,0.34375-5.99414,0.34375c-0.60449,0-0.97363-0.13477-3.94531-0.13477  c-2.85596,0-5.80615,0.32422-8.46143,1.26953c-2.67773,0.95312-4.30518,2.39844-4.88037,2.97656l-0.05518,0.05664l-0.09619,0.09375  c-0.11035,0.09375-0.25928,0.18945-0.43115,0.29688c-0.26514,0.16797-0.56543,0.35938-0.86182,0.62891l-0.43262,0.39648  l-0.36865,0.33789C28.53564,23.54248,28.45996,23.56787,28.41602,23.53857 M77.85156,16.79834  c-0.01855-0.04297-0.08887-0.04883-0.18164-0.01172l-0.62695,0.22461c-3.32031,1.18945-6.09863,1.87109-9.28906,2.2832  c-3.1582,0.39453-6.10938,0.41797-9.55273,0.33203c-0.01367,0-0.0293,0-0.04297-0.00195  c-0.15918-0.00391-0.17676,0.13672,0.01562,0.19727c0.01562,0.00586,0.03516,0.01172,0.05371,0.01758  c0.75488,0.22461,1.82715,0.42188,2.49121,0.45898c3.96582,0.11133,6.62109-0.07227,9.47363-0.6582  c1.91309-0.4043,4.09277-0.97656,7.06738-2.42969l0.48047-0.23828C77.83203,16.92529,77.87305,16.84521,77.85156,16.79834   M71.21875,20.14795c-2.8252,0.66406-5.4082,0.88867-9.2168,0.80078l-0.1543-0.00391c-0.05859,0-0.10742,0.0293-0.11523,0.07227  c-0.01172,0.06445,0.07129,0.16992,0.33887,0.27148l0.08789,0.03711l0.06152,0.02539  c0.77344,0.29883,1.83691,0.60938,2.4707,0.63281c3.64648-0.01367,6.13867-0.41211,8.8877-1.41992  c1.46582-0.55469,2.76562-1.19922,4.21387-2.08594c1.35156-0.83984,2.59082-1.72266,4.01953-2.86572l0.2666-0.21387  c0.07324-0.05859,0.10156-0.12012,0.10059-0.16797c0-0.02344-0.00586-0.04395-0.01758-0.06055  c-0.03418-0.04688-0.1123-0.06445-0.19531-0.00977c0,0-0.42188,0.28125-0.42383,0.28125l-1.08008,0.66699  c-1.75391,1.09424-3.31055,1.92041-4.89453,2.6001C74.09961,19.3335,72.75781,19.77686,71.21875,20.14795 M66.28516,23.43896  c0.94141,0.50195,1.92188,0.82227,2.44141,0.79883c3.29199-0.34375,5.49609-1.08203,8.13281-2.72266  c1.2832-0.81445,2.50586-1.77344,4.08398-3.20508c1.52832-1.38477,3.18555-3.0415,5.36328-5.26611l0.09668-0.09766  c0.14648-0.14844,0.3916-0.39746,0.46191-0.47656c0.08789-0.09961,0.08984-0.17969,0.05566-0.21289  c-0.03613-0.03613-0.12793-0.03027-0.2373,0.07031c-0.09766,0.08887-0.5,0.42969-0.6123,0.51855  c-0.75684,0.60742-1.51465,1.2373-2.02832,1.68262c-2.07227,1.83643-3.70117,3.13525-5.2793,4.21533  c-1.48633,1.00391-2.7793,1.72266-4.19141,2.32812c-2.74414,1.14062-5.20117,1.61133-8.76562,1.67773  c-0.24707,0.01367-0.27832,0.07031-0.28223,0.08594C65.51367,22.88037,65.56543,23.02881,66.28516,23.43896 M70.43164,26.146  c0.9707,0.66602,1.93555,1.03711,2.40039,0.92188c2.76855-0.94336,4.64258-2.16992,7.16211-4.69531  c1.23926-1.25977,2.41602-2.62305,4.1543-4.69727l0.58984-0.70508c0,0,2.4082-2.8667,2.4082-2.86768  c1.13086-1.32422,2.50586-2.91406,4.50879-5.02832l0.37207-0.40625c0.09668-0.10547,0.10547-0.20117,0.06641-0.24219  c-0.03809-0.04102-0.13086-0.03711-0.25293,0.06055L91.48633,8.7832l-0.05469,0.04785  c-1.13477,0.96582-2.49609,2.23047-3.38672,3.14746l-1.00488,1.05664c-2.29395,2.40723-3.80859,3.99951-5.19727,5.36084  c-1.65918,1.61914-2.84082,2.63672-4.0791,3.51758c-2.61523,1.82617-4.77148,2.67578-7.95703,3.13477  c-0.13867,0.02734-0.2168,0.07617-0.23242,0.14844C69.55078,25.30029,69.63281,25.55811,70.43164,26.146 M74.90527,29.64014  c1.01074,0.8418,1.95508,1.22266,2.34668,0.94922c1.08105-0.94336,1.97168-1.89844,2.98047-3.19141  c0.93066-1.19922,1.81445-2.50586,2.93555-4.22852l0.625-0.96484c0.96484-1.49609,2.05859-3.18945,3.78906-5.58789  c1.03125-1.42236,2.22266-3.02002,3.94434-5.05713c1.01855-1.19727,1.9375-2.21387,2.97949-3.29395  c1.40039-1.46484,2.70898-2.71973,4.24219-4.07227c0.13672-0.12402,0.88086-0.78516,1.00684-0.88379  c0.24902-0.19629,0.27734-0.34863,0.21973-0.4248c-0.06055-0.08105-0.22852-0.0957-0.39453,0.02246l-0.22168,0.1582  l-0.38379,0.27246c-2.13672,1.54395-4.45117,3.60742-5.69922,4.87109c-2.19727,2.27539-3.67773,3.99121-4.9502,5.50684  c-1.2041,1.43164-2.10645,2.56299-2.97949,3.65674l-0.4082,0.50977c-1.69531,2.12109-2.81445,3.52344-3.96289,4.81445  c-1.23828,1.38281-2.23242,2.33203-3.32031,3.17383c-1.13867,0.87891-2.24609,1.52734-3.59375,2.10156  c-0.09961,0.05469-0.1582,0.13281-0.16992,0.23438C73.85352,28.51123,74.21484,29.021,74.90527,29.64014"></path>
</svg>
