<?xml version="1.0" encoding="UTF-8"?>
<svg id="Ebene_1" xmlns="http://www.w3.org/2000/svg" version="1.1" viewBox="0 0 119.1 100">
  <!-- Generator: Adobe Illustrator 29.1.0, SVG Export Plug-In . SVG Version: 2.1.0 Build 142)  -->
  <defs>
    <style>
      .st0 {
        fill: #039;
      }

      .st1 {
        fill: #a3a3a3;
      }
    </style>
  </defs>
  <path class="st0" d="M46.9,91.3h-1.8l-.7,3.4c-.2,1,0,1.3.6,1.3.3,0,.6,0,.9-.1v.8c-.4,0-.8.1-1.2.1-1.2,0-1.6-.6-1.3-2l.7-3.6h-1.3l.2-.7h1.3l.4-2.1,1-.2-.5,2.3h1.8v.7c-.1,0-.1,0-.1,0Z"/>
  <path class="st0" d="M53.2,96.8h-.9l.8-4c.2-1.1,0-1.5-.6-1.5-1.3,0-2.6,2.6-2.9,4.2l-.2,1.3h-.9l1.6-8.4h0c-.3,0-.7-.1-1.1-.2v-.5c.8,0,1.4-.1,2.1,0l-.6,3c-.2.9-.4,1.7-.7,2.5h0c.6-1.4,1.6-2.8,3-2.8s1.5.8,1.3,2.1l-.8,4.2h0Z"/>
  <path class="st0" d="M57.4,96.8h-.9l1-5.4h0c-.3,0-.7-.1-1.1-.2v-.5c.8,0,1.4-.1,2.1,0l-1.2,6.2h0ZM58.5,89.4c-.3,0-.6-.2-.6-.6h0c0-.4.3-.7.7-.7h0c.3,0,.6.3.6.6,0,.4-.3.7-.7.7h0,0Z"/>
  <path class="st0" d="M65.6,96.8h-.9l.8-4c.2-1.1,0-1.5-.6-1.5-1.3,0-2.6,2.6-2.9,4.2l-.2,1.3h-.9l1-5.4h0c-.3,0-.7-.1-1.1-.2v-.5c.8,0,1.4-.1,2.1,0-.2.9-.5,1.8-.8,2.7h0c.6-1.4,1.6-2.8,3-2.8s1.5.8,1.3,2.1l-.8,4.2h0s0,0,0,0Z"/>
  <path class="st0" d="M71.3,93.4l2,3.4h-1.1l-1.8-3.4-.6,3.4h-.9l1.6-8.4h0c-.3,0-.7-.1-1.1-.2v-.5c.8,0,1.4-.1,2.1,0l-1.1,5.6,3-3,.7.6-2.7,2.5h0Z"/>
  <path class="st0" d="M79.7,94c0,.3,0,.5,0,.8,0,1.1.4,1.3,1.4,1.3.6,0,1.2-.1,1.7-.4v.8c-.7.3-1.4.4-2.1.4-1.4,0-2.1-.6-2.1-2,0-2.3,1.3-4.5,3.4-4.5s1.8.6,1.8,1.4c0,1.3-1.3,2-4.1,2.1h0ZM81.9,91.2c-1.1,0-1.8.9-2.1,2.1,2.1,0,3-.5,3-1.3s-.4-.8-.9-.8h0Z"/>
  <path class="st0" d="M90.6,96.8h-.9l.8-4c.2-1.1,0-1.5-.6-1.5-1.3,0-2.6,2.6-2.9,4.2l-.2,1.3h-.9l1-5.4h0c-.3,0-.7-.1-1.1-.2v-.5c.8,0,1.4-.1,2.1,0-.2.9-.5,1.8-.8,2.7h0c.6-1.4,1.6-2.8,3-2.8s1.5.8,1.3,2.1l-.8,4.2h0Z"/>
  <path class="st0" d="M94.6,94c0,.3,0,.5,0,.8,0,1.1.4,1.3,1.4,1.3.6,0,1.2-.1,1.7-.4v.8c-.7.3-1.4.4-2.1.4-1.4,0-2.1-.6-2.1-2,0-2.3,1.3-4.5,3.4-4.5s1.8.6,1.8,1.4c0,1.3-1.3,2-4.1,2.1ZM96.9,91.2c-1.1,0-1.8.9-2.1,2.1,2.1,0,3-.5,3-1.3s-.4-.8-.9-.8h0Z"/>
  <path class="st0" d="M105.3,91.4c-1.3-.5-2.6,2.4-2.9,4l-.3,1.4h-.9l1-5.4h0c-.3,0-.7-.1-1.1-.2v-.5c.8,0,1.4-.1,2.1,0-.2.8-.4,1.7-.7,2.5h0c.7-1.6,1.5-2.9,2.8-2.6l-.2.9h0Z"/>
  <path class="st0" d="M110.4,97.4c-.3,1.4-1.2,2.6-3.5,2.6-.6,0-1.1,0-1.6-.2l.2-.9c.5.2,1.1.3,1.7.3,1.2.1,2.3-.7,2.4-1.9,0,0,0,0,0-.1.2-1,.5-2,.8-3h0c-.4.9-1.4,2.8-3,2.8s-1.4-.6-1.4-1.9c0-2.3,1.2-4.6,3.9-4.6.6,0,1.2,0,1.9.2l-1.3,6.8h0ZM109.7,91.2c-2,0-2.8,2-2.8,3.7s.3,1.2.7,1.2c1.3,0,2.6-2.7,2.9-4.2v-.5c-.2,0-.5-.1-.9-.1h0Z"/>
  <path class="st0" d="M114.4,98.9c-.6.6-1.3,1-2.2,1.1-.3,0-.6,0-.9,0l.2-.9c.3,0,.5.1.8.1.6,0,1.1-.4,1.5-.8.5-.6.8-1.4.8-2.1,0-1.9-.4-3.8-.9-5.7h1c.4,1.7.7,3.4.7,5.1,0,.3,0,.6-.1.9h0c1.1-2,2.1-4.1,3-6.2l.9.3c-1.6,3.7-3.2,6.7-4.8,8.3h0Z"/>
  <path class="st0" d="M35.2,22.5c3.2-1.7,6.2-3.7,8.9-6.1-3-1.9-6.3-3.5-9.7-4.6,0,.6,0,1.3,0,1.9,0,1.9.1,3.8.4,5.7.1,1,.3,2.1.5,3.1h0Z"/>
  <path class="st1" d="M38.9,0c-.6.7-1.2,1.5-1.7,2.4-1,1.8-1.7,3.7-2.2,5.7,7.2,1.6,13.8,5,19.4,9.7,0,0,0-.2,0-.3,0-9-6.7-16.5-15.6-17.5Z"/>
  <path class="st1" d="M18.6,17.4c0,2.3.4,4.5,1.3,6.6,1.7.6,3.5.9,5.3.9,2.2,0,4.3-.4,6.3-1.1-2.1-7.5-2.7-15.5-.8-23-7.2,2.4-12,9.1-12.1,16.6Z"/>
  <path class="st1" d="M52,27c-.3-.9-.7-1.8-1.2-2.6-1-1.7-2.2-3.2-3.7-4.5-5.8,5.9-13,10.7-21,12.6,7.7,5.9,18.7,4.3,24.6-3.4.5-.6.9-1.3,1.3-2h0Z"/>
  <path class="st0" d="M28.7,48.8c-2.6,5.4-5.2,10.9-7.8,16.5h0c0-2-.2-4.1-.5-6.1l-1.3-10.4h-4.8c-2.4,4.9-5.8,11.7-8,16.5h0c0-1.8-.2-3.9-.4-6l-.9-10.5H0s2.4,22.5,2.4,22.5h5.1c6.5-13.1,1.5-3,7.9-16.1h0c0,1.6.1,3.2.3,4.8l1.5,11.4h5.4s10-19.9,10-19.9c.2,0,.4,0,.5,0h0c0,.1-6,31.1-6,31.1h3.3s2.2-11.3,2.2-11.3c1.2.2,2.3.3,3.5.3,5.5.2,10.6-3.1,12.5-8.3,0,.6,0,1.2,0,1.8,0,4.7,1.7,6.7,4.8,6.7,6.4,0,10.1-7.9,11.6-11.5h0c-1.2,3.7-2.3,7.4-3.1,11.1,2.1,0,4.2,0,6.4-.3l.2-1.2c-1.3-.1-2.8-.3-3.8-.5l6-31.1c-2,0-1,0-2.4,0v.6c-.2.5-.2.7-.3,1.3h0c0,.1-1.7,8.6-1.7,8.6-1.3-.2-2.6-.3-3.9-.3-6.4,0-10.3,3.5-12.3,8.2,0-.5,0-1.1,0-1.7,0-4.7-1.7-6.8-5-6.8-4.8,0-8.5,4.6-10.9,10.3h0c1.1-3.3,2-6.5,2.8-9.8h-8.3ZM36.8,69c-1.2,0-2.4-.2-3.5-.6l.4-1.9c1.2-5.6,5.9-15.2,10.7-15.2,1.5,0,2.5,1.3,2.5,4.5,0,5.9-2.9,13.2-10,13.2h0ZM53.9,69.8c-1.7,0-2.9-1.4-2.8-5,0-6.4,2.9-14.2,11.1-14.2,1.3,0,2.6.2,3.9.5l-.4,2.1c-1.2,6.1-6.4,16.6-11.7,16.6h0Z"/>
</svg>