<svg id="Logo_Sunnic" data-name="Logo &gt; Sunnic" xmlns="http://www.w3.org/2000/svg" width="179.541" height="70" viewBox="0 0 179.541 70">
  <g id="Container" transform="translate(0 0)">
    <path id="Pfad_856" data-name="Pfad 856" d="M33.934,241.047a8.111,8.111,0,0,1-.838,3.819,7.271,7.271,0,0,1-2.212,2.585,10.136,10.136,0,0,1-3.167,1.467,13.691,13.691,0,0,1-3.656.466,15.962,15.962,0,0,1-3.8-.442,12.541,12.541,0,0,1-2.864-.978c.07-.582.186-1.351.349-2.282a18.43,18.43,0,0,1,.652-2.655h.885a5.234,5.234,0,0,0,1.979,3.167,5.574,5.574,0,0,0,3.33,1.071,5.66,5.66,0,0,0,3.26-.955,3.477,3.477,0,0,0,1.374-3.074,3.191,3.191,0,0,0-1.281-2.818A15.545,15.545,0,0,0,23.99,238.7a14.938,14.938,0,0,1-2.166-.838,6.324,6.324,0,0,1-1.816-1.258,5.363,5.363,0,0,1-1.257-1.886,7.109,7.109,0,0,1-.466-2.7,6.659,6.659,0,0,1,.838-3.47,7.189,7.189,0,0,1,2.142-2.282,8.324,8.324,0,0,1,2.841-1.211,13.046,13.046,0,0,1,2.911-.349,18.9,18.9,0,0,1,3.656.349,10.548,10.548,0,0,1,2.725.838,20.786,20.786,0,0,0-.652,2.072c-.233.885-.419,1.723-.582,2.515h-.931a6.048,6.048,0,0,0-1.281-2.725,3.863,3.863,0,0,0-3.051-1.094,4.855,4.855,0,0,0-2.771.838,3.455,3.455,0,0,0-.14,5.17,10.458,10.458,0,0,0,3.26,1.49,13.433,13.433,0,0,1,4.983,2.492A5.683,5.683,0,0,1,33.934,241.047Z" transform="translate(-17.4 -179.431)" fill="#002744"/>
    <path id="Pfad_857" data-name="Pfad 857" d="M131.866,250.843l-1.514-.07c-.512-.023-1.025-.023-1.56-.023s-1.048,0-1.537.023-.931.047-1.327.07c.093-1.281.14-2.538.14-3.749h-.186a9.893,9.893,0,0,1-3.307,3.051,8.812,8.812,0,0,1-4.541,1.188,9.713,9.713,0,0,1-3.889-.675,6.133,6.133,0,0,1-2.445-1.816,6.631,6.631,0,0,1-1.257-2.748,15.432,15.432,0,0,1-.349-3.353c0-.815.023-1.793.07-2.888s.07-2.236.07-3.423v-.582c0-.536,0-1.188-.023-1.956s-.023-1.56-.047-2.375-.047-1.583-.07-2.329-.07-1.351-.093-1.863c.4.023.862.047,1.374.07.536.023,1.071.023,1.63.023.536,0,1.048,0,1.56-.023s.978-.047,1.4-.07c-.023.768-.07,1.653-.093,2.725-.023,1.048-.07,2.142-.093,3.283s-.047,2.259-.07,3.377-.023,2.142-.023,3.051v1.421a21.41,21.41,0,0,0,.14,2.422,7.19,7.19,0,0,0,.605,2.212,4.106,4.106,0,0,0,1.351,1.607,3.934,3.934,0,0,0,2.329.605,5.238,5.238,0,0,0,4.4-2,8.709,8.709,0,0,0,1.537-5.449v-3.307c0-.722,0-1.514-.023-2.4-.023-.862-.023-1.747-.047-2.631s-.047-1.77-.093-2.608c-.047-.862-.116-1.63-.163-2.329.466.023.955.047,1.49.07s1.071.023,1.63.023c.536,0,1.048,0,1.583-.023s1.025-.047,1.49-.07c-.07.7-.116,1.514-.163,2.492s-.093,1.979-.093,3.027c-.023,1.048-.023,2.073-.047,3.074s-.023,1.863-.023,2.585v2.166c0,1.49.023,3.12.07,4.937C131.657,247.466,131.75,249.19,131.866,250.843Z" transform="translate(-88.437 -181.425)" fill="#002744"/>
    <path id="Pfad_858" data-name="Pfad 858" d="M253.766,249.462c-.4-.023-.862-.047-1.374-.07-.536-.023-1.048-.023-1.583-.023-.559,0-1.095,0-1.63.023s-.978.047-1.374.07c.023-.745.07-1.653.116-2.725.047-1.048.093-2.142.093-3.283.023-1.141.023-2.259.047-3.377s.023-2.142.023-3.051v-1.42a21.417,21.417,0,0,0-.14-2.422,6.127,6.127,0,0,0-.652-2.212,4.37,4.37,0,0,0-1.374-1.607,3.992,3.992,0,0,0-2.375-.629,5.088,5.088,0,0,0-4.308,1.956,8.763,8.763,0,0,0-1.514,5.449V239.5c0,.768,0,1.56.023,2.422s.023,1.723.047,2.608.047,1.77.093,2.608c.047.862.116,1.63.163,2.329-.466-.023-.955-.047-1.49-.07s-1.048-.023-1.583-.023c-.559,0-1.095,0-1.63.023s-1,.047-1.42.07c.07-.7.116-1.514.163-2.492s.093-1.979.093-3.027c.023-1.048.023-2.073.047-3.051s.023-1.863.023-2.608v-2.166c0-1.49-.023-3.12-.07-4.937s-.14-3.54-.279-5.193l1.49.07c.489.023,1.025.023,1.584.023.489,0,1,0,1.514-.023s.955-.047,1.3-.07c-.07.559-.116,1.141-.14,1.77s-.047,1.257-.047,1.933h.186a9.825,9.825,0,0,1,3.307-3.027,9.026,9.026,0,0,1,4.541-1.164,10.118,10.118,0,0,1,3.935.675,5.823,5.823,0,0,1,2.445,1.816,7.278,7.278,0,0,1,1.258,2.748,14.1,14.1,0,0,1,.373,3.353c0,.862-.023,1.816-.07,2.911s-.07,2.212-.07,3.4v.582c0,.559,0,1.211.023,1.979s.023,1.537.047,2.352.047,1.584.07,2.329C253.7,248.344,253.743,248.973,253.766,249.462Z" transform="translate(-181.95 -180.044)" fill="#002744"/>
    <path id="Pfad_859" data-name="Pfad 859" d="M377.966,249.462c-.4-.023-.862-.047-1.374-.07-.536-.023-1.048-.023-1.583-.023-.559,0-1.094,0-1.63.023s-.978.047-1.374.07c.023-.745.07-1.653.116-2.725.047-1.048.093-2.142.093-3.283.023-1.141.023-2.259.047-3.377s.023-2.142.023-3.051v-1.42a21.421,21.421,0,0,0-.14-2.422,6.126,6.126,0,0,0-.652-2.212,4.37,4.37,0,0,0-1.374-1.607,3.992,3.992,0,0,0-2.375-.629,5.088,5.088,0,0,0-4.308,1.956,8.763,8.763,0,0,0-1.514,5.449V239.5c0,.768,0,1.56.023,2.422s.023,1.723.047,2.608.047,1.77.093,2.608c.047.862.116,1.63.163,2.329-.466-.023-.955-.047-1.49-.07s-1.048-.023-1.584-.023c-.559,0-1.094,0-1.63.023s-1,.047-1.421.07c.07-.7.116-1.514.163-2.492s.093-1.979.093-3.027c.023-1.048.023-2.073.047-3.051s.023-1.863.023-2.608v-2.166c0-1.49-.023-3.12-.07-4.937s-.14-3.54-.28-5.193l1.49.07c.489.023,1.025.023,1.583.023.489,0,1,0,1.514-.023s.955-.047,1.3-.07c-.07.559-.116,1.141-.14,1.77s-.047,1.257-.047,1.933h.186a9.826,9.826,0,0,1,3.307-3.027,9.026,9.026,0,0,1,4.541-1.164,10.118,10.118,0,0,1,3.935.675,5.824,5.824,0,0,1,2.445,1.816,7.278,7.278,0,0,1,1.257,2.748,14.1,14.1,0,0,1,.373,3.353c0,.862-.023,1.816-.07,2.911s-.07,2.212-.07,3.4v.582c0,.559,0,1.211.023,1.979s.023,1.537.047,2.352.047,1.584.07,2.329C377.92,248.344,377.943,248.973,377.966,249.462Z" transform="translate(-277.228 -180.044)" fill="#002744"/>
    <path id="Pfad_860" data-name="Pfad 860" d="M489.055,251.073c-.419-.023-.908-.047-1.421-.07s-1.071-.023-1.607-.023c-.512,0-1.048,0-1.584.023s-1.025.047-1.444.07c.07-.7.116-1.514.163-2.492s.093-1.979.093-3c.023-1.048.023-2.049.047-3.051s.023-1.886.023-2.631V237.73c0-.722,0-1.537-.023-2.422s-.023-1.793-.047-2.7-.047-1.793-.093-2.655-.116-1.653-.163-2.352c.419.023.908.047,1.444.07s1.071.023,1.584.023c.559,0,1.094,0,1.607-.023s1-.047,1.421-.07c-.07.722-.116,1.514-.163,2.4-.047.862-.093,1.746-.093,2.631-.023.885-.023,1.77-.047,2.655s-.023,1.7-.023,2.422v2.166c0,.768,0,1.63.023,2.608s.023,2,.047,3.027c.023,1.048.047,2.049.093,3.027C488.938,249.536,488.985,250.374,489.055,251.073Z" transform="translate(-374.577 -181.655)" fill="#002744"/>
    <path id="Pfad_861" data-name="Pfad 861" d="M551.853,245.7c-.093.629-.14,1.164-.163,1.63a9.6,9.6,0,0,1-3.214,1.607,15.162,15.162,0,0,1-4.634.652,16.106,16.106,0,0,1-4.774-.7,10.05,10.05,0,0,1-6.59-6.055,14.867,14.867,0,0,1-.978-5.682,12.865,12.865,0,0,1,1.118-5.589,10.875,10.875,0,0,1,2.911-3.8,12.055,12.055,0,0,1,4.122-2.166,16.291,16.291,0,0,1,4.751-.7,18.174,18.174,0,0,1,4.75.605,11.322,11.322,0,0,1,3.26,1.351c-.093.279-.21.605-.349,1s-.256.815-.4,1.234a11.875,11.875,0,0,0-.349,1.3c-.093.442-.186.862-.256,1.257l-.931.047a6.289,6.289,0,0,0-1.677-3.237,4.938,4.938,0,0,0-3.656-1.3,6.5,6.5,0,0,0-3.353.815,6.613,6.613,0,0,0-2.282,2.189,9.34,9.34,0,0,0-1.281,3.167,17.794,17.794,0,0,0-.4,3.749,15.854,15.854,0,0,0,.442,3.866,9.316,9.316,0,0,0,1.4,3.12,6.481,6.481,0,0,0,2.468,2.072,8.072,8.072,0,0,0,3.586.745,8.3,8.3,0,0,0,3.563-.768,6.251,6.251,0,0,0,2.608-2.236l.652.349A5.653,5.653,0,0,0,551.853,245.7Z" transform="translate(-411.783 -179.584)" fill="#002744"/>
    <g id="Gruppe_4657" data-name="Gruppe 4657">
      <path id="Pfad_862" data-name="Pfad 862" d="M18.3,30.3V40.756L127,66.3h.023l-.326-.093L18.6,30.533Z" transform="translate(-18.091 -30.3)" fill="#0093d6"/>
      <path id="Pfad_863" data-name="Pfad 863" d="M126.5,111.287,17.8,88.047,17.87,88l.023,10.013Z" transform="translate(-17.707 -74.563)" fill="#0093d6"/>
      <path id="Pfad_864" data-name="Pfad 864" d="M126.709,153.545l-108.377-10.9L18.1,142.6v10.968H126.709Z" transform="translate(-17.938 -116.449)" fill="#0093d6"/>
    </g>
    <path id="Pfad_865" data-name="Pfad 865" d="M507.6,189.77l65.389,4.937V189.7H507.6Z" transform="translate(-393.448 -152.581)" fill="#0093d6"/>
    <path id="Pfad_866" data-name="Pfad 866" d="M507.4,191.8h.093l55.446,6.124v4.914L507.4,191.87Z" transform="translate(-393.295 -154.192)" fill="#0093d6"/>
    <path id="Pfad_867" data-name="Pfad 867" d="M507.5,157.345l45.5-5.682V148.1l-.489.116-44.85,9.035-.163.023Z" transform="translate(-393.372 -120.668)" fill="#0093d6"/>
  </g>
</svg>
