<?xml version="1.0" encoding="utf-8"?>
<!-- Generator: Adobe Illustrator 24.3.0, SVG Export Plug-In . SVG Version: 6.00 Build 0)  -->
<svg version="1.1" id="Ebene_1" xmlns="http://www.w3.org/2000/svg" xmlns:xlink="http://www.w3.org/1999/xlink" x="0px" y="0px"
	 viewBox="0 0 438 132.9" style="enable-background:new 0 0 438 132.9;" xml:space="preserve">
<style type="text/css">
	.st0{fill:#10658E;}
	.st1{fill:#FCBD0C;}
	.st2{fill:#FFFFFF;}
</style>
<g id="Ebene_2_1_">
	<path class="st0" d="M407.9,128.3H29.2c-14,0-25.5-11.5-25.5-25.5V30c0-14,11.5-25.5,25.5-25.5h378.7c14,0,25.5,11.5,25.5,25.5
		v72.8C433.4,116.8,421.9,128.3,407.9,128.3z"/>
</g>
<g id="WO_x5F_Logo">
	<g>
		<path class="st1" d="M263.9,67.2c-1.3,0.4-2.6,0.7-4,0.9c-0.1-2.2-0.6-4.6-1.6-7.1c0.5,2.7,0.7,5.1,0.6,7.1
			c-1.6,0.1-3.2,0-4.8-0.3c0.1-2.4-0.4-5-1.4-7.7c0.4,2.9,0.5,5.4,0.3,7.5c-2.5-0.5-5-1.5-7.6-3.1c2,1.9,4.6,3.2,7.5,3.8
			c-0.3,2.3-0.9,4.1-1.7,5.7c-2.3-0.6-4.7-1.5-7-2.9c1.8,1.7,4.1,2.9,6.6,3.6c-1.2,2.1-2.8,3.6-4.3,4.8c2.3-1.2,4-2.8,5.3-4.6
			c1.6,0.4,3.4,0.5,5.2,0.5c-1.2,2.2-2.7,3.9-4.2,5.1c2.4-1.4,4.2-3.1,5.3-5.1c1.6-0.1,3.2-0.4,4.8-0.7c-2.1,5-6.9,8.6-12.8,8.9
			c-8.1,0.3-14.7-6.1-15-14.2s5.8-14.9,13.9-15.2C256.8,54.1,263,59.8,263.9,67.2 M257.4,74.8c-1.7,0.1-3.4,0-5.2-0.4
			c1-1.7,1.6-3.6,1.8-5.7c1.5,0.3,3.2,0.4,4.8,0.3C258.6,71.3,258.1,73.2,257.4,74.8 M259.9,69c1.3-0.1,2.7-0.3,4.1-0.6
			c0,0.1,0,0.1,0,0.2c0.1,1.8-0.2,3.5-0.7,5.1c-1.5,0.5-3.1,0.9-4.8,1.1C259.4,72.9,259.9,71,259.9,69 M268.4,68.5
			C268,58.1,259.3,50,249,50.4c-10.4,0.4-18.5,9.1-18.1,19.4s9.1,18.5,19.4,18.1C260.6,87.6,268.8,78.8,268.4,68.5"/>
		<path class="st2" d="M397.4,82.1c-9.4,0-11-10.2-11-10.2H412c1.3,0,2.4-1,2.4-2.4c0-10.6-6.7-18.9-17.1-18.9
			c-10.3,0-17.1,8.3-17.1,18.7c0,10.3,6.7,18.7,17.1,18.7c6.7,0,11.8-3.3,14.6-6.6c0.5-0.6,0.7-1,0.7-1.7s-0.2-1.2-0.7-1.7l-0.8-0.8
			c-0.5-0.5-1.1-0.7-1.7-0.7s-1.2,0.2-1.7,0.7C405.5,79.8,402,82.1,397.4,82.1 M386.4,66.8c1.3-5.7,4.4-10.5,11-10.5
			c6.5,0,9.7,4.8,11,10.5H386.4z M349.6,56v-1.3c0-1.3-1.1-2.4-2.4-2.4h-1.1c-1.3,0-2.4,1-2.4,2.4V84c0,1.4,1.1,2.4,2.4,2.4h1.1
			c1.3,0,2.4-1,2.4-2.4V64.1c2.4-4.9,5.7-7.5,9.4-7.5c6.9,0,8.5,7.4,8.5,12.9V84c0,1.4,1.1,2.4,2.4,2.4h1.1c1.3,0,2.4-1,2.4-2.4V68
			c0-10.2-4-17-14.4-17C355.8,50.9,352.4,52.8,349.6,56 M329,84V54.6c0-1.3,1.1-2.4,2.4-2.4h1.1c1.3,0,2.4,1,2.4,2.4V84
			c0,1.4-1.1,2.4-2.4,2.4h-1.1C330.1,86.4,329,85.3,329,84 M328.4,44c0,2,1.6,3.6,3.6,3.6s3.6-1.6,3.6-3.6s-1.6-3.6-3.6-3.6
			C330,40.5,328.4,42.1,328.4,44 M313.9,84c0,1.4,1.1,2.4,2.4,2.4h1.1c1.3,0,2.4-1,2.4-2.4V32.4c0-1.4-1.1-2.4-2.4-2.4h-1.1
			c-1.3,0-2.4,1-2.4,2.4V84z M281,56v-1.3c0-1.3-1.1-2.4-2.4-2.4h-1.1c-1.3,0-2.4,1-2.4,2.4V84c0,1.4,1.1,2.4,2.4,2.4h1.1
			c1.3,0,2.4-1,2.4-2.4V64.1c2.4-4.9,5.7-7.5,9.4-7.5c6.9,0,8.5,7.4,8.5,12.9V84c0,1.4,1.1,2.4,2.4,2.4h1.1c1.3,0,2.4-1,2.4-2.4V68
			c0-10.2-4-17-14.4-17C287.1,50.9,283.7,52.8,281,56"/>
		<path class="st2" d="M222.5,56.3c0.6,0,1.7,0.2,2.1,0.2c0.9,0,1.5-0.7,1.9-1.7l0.4-1.4c0,0,0.2-0.6,0.2-0.8c0-1.1-0.8-1.7-1.7-1.9
			c0,0-1.3-0.2-3-0.2c-4.8,0-7.9,2.2-10.6,4.8v-0.8c0-1.4-1.1-2.4-2.4-2.4h-1.1c-1.3,0-2.4,1-2.4,2.4v29.4c0,1.3,1.1,2.4,2.4,2.4
			h1.1c1.3,0,2.4-1,2.4-2.4v-20C213.7,58.2,218.4,56.3,222.5,56.3 M181.5,81.9c-9.4,0-11-10.2-11-10.2h25.6c1.3,0,2.4-1,2.4-2.4
			c0-10.6-6.7-18.9-17.1-18.9c-10.3,0-17.1,8.3-17.1,18.7c0,10.3,6.7,18.7,17.1,18.7c6.7,0,11.8-3.3,14.6-6.6c0.5-0.6,0.7-1,0.7-1.7
			c0-0.6-0.2-1.2-0.7-1.7l-0.8-0.8c-0.5-0.5-1.1-0.7-1.7-0.7c-0.6,0-1.2,0.2-1.7,0.7C189.7,79.7,186.1,81.9,181.5,81.9 M170.6,66.6
			c1.3-5.7,4.4-10.5,11-10.5c6.5,0,9.7,4.8,11,10.5H170.6z M157.2,86.8c1.4,0,2.4-1,2.4-2.2v-1.1c0-1.3-1-2-2.4-2.4
			c-3.9-1-7.5-3.3-7.5-7.5v-16h7.5c1.4,0,2.4-1.1,2.4-2.4v-0.7c0-1.3-1-2.4-2.4-2.4h-7.5v-9.4c0-1.3-1.1-2.4-2.4-2.4h-1.1
			c-1.3,0-2.4,1-2.4,2.4V52h-3.1c-1.4,0-2.4,1.1-2.4,2.4v0.7c0,1.3,1,2.4,2.4,2.4h3.1v15.3C143.8,85.2,155.1,86.8,157.2,86.8
			 M132.7,86.8c1.3,0,2.4-1,2.4-2.2v-1.1c0-1.3-1-2-2.4-2.4c-3.9-1-7.5-3.3-7.5-7.5v-16h7.5c1.3,0,2.4-1.1,2.4-2.4v-0.7
			c0-1.3-1-2.4-2.4-2.4h-7.5v-9.4c0-1.3-1.1-2.4-2.4-2.4h-1.1c-1.3,0-2.4,1-2.4,2.4V52h-3.1c-1.3,0-2.4,1.1-2.4,2.4v0.7
			c0,1.3,1,2.4,2.4,2.4h3.1v15.3C119.4,85.2,130.6,86.8,132.7,86.8 M93.8,81.9c-9.4,0-11-10.2-11-10.2h25.6c1.3,0,2.4-1,2.4-2.4
			c0-10.6-6.7-18.9-17.1-18.9s-17.1,8.3-17.1,18.7c0,10.3,6.7,18.7,17.1,18.7c6.7,0,11.8-3.3,14.6-6.6c0.5-0.6,0.7-1,0.7-1.7
			c0-0.6-0.2-1.2-0.7-1.7l-0.8-0.8c-0.5-0.5-1.1-0.7-1.7-0.7c-0.6,0-1.2,0.2-1.7,0.7C102,79.7,98.4,81.9,93.8,81.9 M82.8,66.6
			c1.3-5.7,4.4-10.5,11-10.5c6.5,0,9.7,4.8,11,10.5H82.8z M47.8,51.2c-0.4,0-0.9,0.5-1.3,1.4l-8.2,19.8l-0.6,3.2L37,72.4l-7.6-18
			c-0.6-1.2-1.5-2.4-3.3-2.4h-1.3c-1.1,0-2.1,0.1-2.1,1c0,0.5,0.4,1.4,0.4,1.4l13.7,31.1c0,0,0.6,1.4,1,1.4c0.3,0,1-1.4,1-1.4
			l8.4-19.8l0.7-3.2l0.7,3.2L57,85.5c0,0,0.6,1.4,1,1.4c0.3,0,1-1.4,1-1.4l13.7-31.1c0,0,0.4-0.9,0.4-1.4c0-1-1-1-2.1-1h-1.4
			c-1.7,0-2.7,1.2-3.3,2.4l-7.6,18L58,75.6l-0.6-3.2l-8.2-19.8C48.7,51.7,48.2,51.2,47.8,51.2"/>
	</g>
</g>
</svg>
